<?xml version="1.0" encoding="utf-8"?>
<!-- Generator: Adobe Illustrator 24.0.1, SVG Export Plug-In . SVG Version: 6.00 Build 0)  -->
<svg version="1.1" id="Layer_1" xmlns="http://www.w3.org/2000/svg" xmlns:xlink="http://www.w3.org/1999/xlink" x="0px" y="0px"
	 viewBox="0 0 300 66.7" style="enable-background:new 0 0 300 66.7;" xml:space="preserve">
<style type="text/css">
	.st0{fill:#FFFFFF;}
	.st1{fill:#C00822;}
</style>
<title>Asset 1</title>
<g>
	<g id="Layer_2_1_">
		<g id="Layer_2-2">
			<g id="_Group_">
				<g id="_Group_2">
					<path id="_Compound_Path_" class="st0" d="M57,36.9v8.6C57.1,51.8,52,57,45.6,57h-25c-6.3,0-11.4-5.1-11.4-11.4V20.8
						c0-6.3,5.1-11.4,11.4-11.4l0,0h24.3l7.9-7.9c0.1,0,0.1-0.1,0-0.2l0,0c-2.2-0.8-4.6-1.2-7-1.2h-25C9.3,0,0,9.3,0,20.8
						c0,0,0,0,0,0.1v24.9c0,11.5,9.3,20.9,20.8,20.9h0.1h25c11.5,0,20.9-9.4,20.9-20.9V27.9c0-0.1,0-0.1-0.1-0.1h-0.1
						C66.5,27.7,57,36.9,57,36.9z"/>
				</g>
				<g id="_Group_3">
					<path id="_Path_" class="st1" d="M73,7.7L34.3,46.2c-0.1,0.1-0.2,0.1-0.2,0L19.5,31.5v-0.1c0.6-2.5,2.1-4.8,4.2-6.3
						c0.6-0.5,1.2-0.9,1.9-1.2h0.1l8.8,8.8l0.1,0.1c0.1,0,0.1-0.1,0.1-0.1l31.9-32h0.1C69.7,2.1,71.9,4.6,73,7.7z"/>
					<circle id="_Path_2" class="st0" cx="34.2" cy="38.2" r="2.4"/>
				</g>
			</g>
			<g id="_Group_4">
				<path class="st0" d="M113.3,30.8h-8.2c-0.8,0-1.4,0.6-1.4,1.4l0,0v29.1c0,0.4-0.1,0.7-0.3,1c-0.3,0.3-0.7,0.5-1.1,0.4h-8.7
					c-0.8,0-1.4-0.6-1.4-1.4l0,0V32.2c0-0.4-0.1-0.7-0.3-1c-0.3-0.3-0.7-0.5-1.1-0.4h-8.3c-0.8,0-1.4-0.6-1.4-1.4l0,0v-8
					c0-0.8,0.6-1.4,1.4-1.4h30.8c0.4,0,0.8,0.1,1.1,0.4c0.3,0.3,0.4,0.6,0.4,1v8c0,0.4-0.1,0.8-0.4,1
					C114.1,30.7,113.7,30.8,113.3,30.8z"/>
				<path class="st0" d="M128.7,62.8h-8.8c-0.4,0.1-0.8-0.1-1-0.4c-0.3-0.3-0.4-0.6-0.3-1V21.5c0-0.4,0.1-0.7,0.3-1
					c0.2-0.3,0.6-0.5,1-0.4h8.8c0.8,0,1.4,0.6,1.4,1.4v39.8c0,0.4-0.1,0.8-0.4,1C129.4,62.6,129.1,62.8,128.7,62.8z"/>
				<path class="st0" d="M184.3,21.5v39.8c0,0.4-0.1,0.8-0.4,1c-0.3,0.3-0.6,0.4-1,0.4h-8.7c-0.4,0-0.8-0.1-1-0.4
					c-0.3-0.3-0.4-0.6-0.4-1V42.5c0-0.3-0.1-0.6-0.4-0.7h-0.1c-0.3,0-0.7,0.1-0.9,0.4L161.5,58c-0.2,0.3-0.6,0.5-1,0.4
					c-0.4,0.1-0.8-0.1-1-0.4l-9.8-15.8c-0.2-0.3-0.5-0.4-0.9-0.4c-0.3,0-0.5,0.2-0.5,0.5v18.9c0,0.4-0.1,0.8-0.4,1
					c-0.3,0.3-0.6,0.4-1,0.4H138c-0.8,0-1.4-0.6-1.4-1.4l0,0V21.5c0-0.8,0.6-1.4,1.4-1.4h8.2c0.4,0,0.8,0.1,1.2,0.3
					c0.4,0.2,0.7,0.5,1,0.9l11.2,16.4c0.2,0.3,0.5,0.4,0.9,0.4c0.3,0,0.6-0.2,0.8-0.4l11.2-16.5c0.3-0.3,0.6-0.6,1-0.9
					c0.4-0.2,0.8-0.3,1.2-0.3h8.2c0.4,0,0.8,0.1,1,0.4C184.2,20.8,184.4,21.1,184.3,21.5z"/>
				<path class="st0" d="M204,32.2v2.5c0,0.8,0.6,1.4,1.4,1.4h15.8c0.8,0,1.4,0.6,1.4,1.4l0,0v8.1c0,0.8-0.6,1.4-1.4,1.4h-15.8
					c-0.8,0-1.4,0.6-1.4,1.4l0,0v2.3c0,0.8,0.6,1.4,1.4,1.4h18.2c0.8,0,1.4,0.6,1.4,1.4l0,0v8.1c0,0.8-0.6,1.4-1.4,1.4h-29.7
					c-0.8,0-1.4-0.6-1.4-1.4l0,0v-40c0-0.8,0.6-1.4,1.4-1.4h29.7c0.8,0,1.4,0.6,1.4,1.4l0,0v8c0,0.8-0.6,1.4-1.4,1.4h-18.2
					C204.7,30.9,204,31.5,204,32.2z"/>
				<path class="st0" d="M240.6,57.2c0,3.3-2.6,6-5.9,6l0,0c-0.8,0-1.5-0.1-2.3-0.4c-2.3-0.9-3.7-3.1-3.7-5.6c0-0.8,0.1-1.5,0.4-2.3
					c0.3-0.7,0.8-1.3,1.3-1.8c0.6-0.6,1.2-1,1.9-1.3s1.5-0.4,2.3-0.4c1.6,0,3.1,0.6,4.3,1.7c0.5,0.5,0.9,1.1,1.2,1.8
					C240.4,55.6,240.6,56.4,240.6,57.2z"/>
				<path class="st0" d="M254.1,62.8h-8.7c-0.4,0.1-0.8-0.1-1-0.4c-0.3-0.3-0.4-0.6-0.4-1V21.5c0-0.8,0.6-1.4,1.4-1.4h8.7
					c0.8,0,1.4,0.6,1.4,1.4l0,0v39.8C255.5,62.1,254.9,62.7,254.1,62.8C254.2,62.8,254.1,62.8,254.1,62.8L254.1,62.8z"/>
				<path class="st0" d="M272.4,62.8h-8.7c-0.4,0-0.8-0.1-1-0.4c-0.3-0.3-0.4-0.6-0.4-1v-40c0-0.8,0.6-1.4,1.4-1.4h18.2
					c2.1,0,4.3,0.4,6.2,1.2c1.8,0.7,3.5,1.8,4.9,3.2c1.4,1.4,2.4,3,3.1,4.8c0.8,2,1.2,4.1,1.2,6.2c0,2.5-0.6,5-1.7,7.2
					c-0.5,1-1.2,2-1.9,2.9c-0.7,0.8-1.5,1.6-2.5,2.2c-0.3,0.2-0.5,0.5-0.6,0.9c-0.1,0.3,0,0.7,0.2,1c1.5,1.9,3,4,4.6,6
					s3.1,4,4.4,5.7c0.2,0.3,0.3,0.7,0.2,1c-0.1,0.3-0.4,0.5-0.8,0.5h-10.9c-0.4,0-0.9-0.1-1.3-0.3s-0.8-0.4-1.1-0.8
					c-1.3-1.6-2.5-3.3-3.7-4.9s-2.5-3.3-3.6-5.1c-0.5-0.6-1.3-1-2.1-1.1h-1.3c-0.8,0-1.4,0.6-1.4,1.4l0,0v9.4
					C273.8,62.2,273.2,62.8,272.4,62.8L272.4,62.8z M275.2,39.8h6.1c0.5,0,0.9-0.1,1.4-0.2c0.5-0.2,1-0.5,1.4-0.9s0.8-0.9,1.1-1.4
					c0.3-0.6,0.4-1.3,0.4-1.9c0-0.5-0.1-0.9-0.2-1.4c-0.1-0.6-0.4-1.1-0.8-1.5c-0.4-0.5-0.8-1-1.4-1.3s-1.3-0.5-2-0.5h-6.1
					c-0.8,0-1.4,0.6-1.4,1.4v6.2C273.9,39.1,274.5,39.7,275.2,39.8L275.2,39.8z"/>
			</g>
		</g>
	</g>
</g>
</svg>
